# xmcd
#
# Track frame offsets:
#	150
#	5978
#	22849
#	39740
#	63607
#	87927
#	105935
#	129665
#	149310
#	150958
#	172760
#	192883
#	217348
#	237609
#	260161
#	283748
#
# Disc length: 3918 seconds
#
# Revision: 6
# Processed by: cddbd v1.4PL0 Copyright (c) Steve Scherf et al.
# Submitted via: audiograbber 1.80
#
DISCID=e70f4c10
DTITLE=Bone Thugs -N- Harmony - Thug World Order
DYEAR=1900
DGENRE=
TTITLE0=T.W.O. Intro
TTITLE1=Bone, Bone, Bone
TTITLE2=Guess Who's Back (featuring LaReece)
TTITLE3=Home (featuring Phil Collins)
TTITLE4=What About Us
TTITLE5=Get Up and Get It (featuring 3LW and Felecia)
TTITLE6=Bad Weed Blues
TTITLE7=All The Way
TTITLE8=Non-Fiction Words By Eazy-E (skit)
TTITLE9=Pump, Pump
TTITLE10=Set It Straight
TTITLE11=Money, Money
TTITLE12=Not My Baby
TTITLE13=Cleveland Is The City (featuring Avant)
TTITLE14=If I Fall
TTITLE15=A Thug Soldier Conversation (with Flesh-N-Bone)
EXTD=The Real Tracklist
EXTT0=
EXTT1=
EXTT2=
EXTT3=
EXTT4=
EXTT5=
EXTT6=
EXTT7=
EXTT8=
EXTT9=
EXTT10=
EXTT11=
EXTT12=
EXTT13=
EXTT14=
EXTT15=
PLAYORDER=
